<svg width="256" height="256" viewBox="0 0 256 256" fill="none" xmlns="http://www.w3.org/2000/svg">
<rect width="256" height="256" fill="#00A3FF"/>
<path d="M116.091 159.273V158.455C116.182 149.773 117.091 142.864 118.818 137.727C120.545 132.591 123 128.432 126.182 125.25C129.364 122.068 133.182 119.136 137.636 116.455C140.318 114.818 142.727 112.886 144.864 110.659C147 108.386 148.682 105.773 149.909 102.818C151.182 99.8636 151.818 96.5909 151.818 93C151.818 88.5455 150.773 84.6818 148.682 81.4091C146.591 78.1364 143.795 75.6136 140.295 73.8409C136.795 72.0682 132.909 71.1818 128.636 71.1818C124.909 71.1818 121.318 71.9545 117.864 73.5C114.409 75.0455 111.523 77.4773 109.205 80.7955C106.886 84.1136 105.545 88.4545 105.182 93.8182H88C88.3636 86.0909 90.3636 79.4773 94 73.9773C97.6818 68.4773 102.523 64.2727 108.523 61.3636C114.568 58.4545 121.273 57 128.636 57C136.636 57 143.591 58.5909 149.5 61.7727C155.455 64.9545 160.045 69.3182 163.273 74.8636C166.545 80.4091 168.182 86.7273 168.182 93.8182C168.182 98.8182 167.409 103.341 165.864 107.386C164.364 111.432 162.182 115.045 159.318 118.227C156.5 121.409 153.091 124.227 149.091 126.682C145.091 129.182 141.886 131.818 139.477 134.591C137.068 137.318 135.318 140.568 134.227 144.341C133.136 148.114 132.545 152.818 132.455 158.455V159.273H116.091ZM124.818 199.636C121.455 199.636 118.568 198.432 116.159 196.023C113.75 193.614 112.545 190.727 112.545 187.364C112.545 184 113.75 181.114 116.159 178.705C118.568 176.295 121.455 175.091 124.818 175.091C128.182 175.091 131.068 176.295 133.477 178.705C135.886 181.114 137.091 184 137.091 187.364C137.091 189.591 136.523 191.636 135.386 193.5C134.295 195.364 132.818 196.864 130.955 198C129.136 199.091 127.091 199.636 124.818 199.636Z" fill="white"/>
</svg>
